<svg id="Layer_1" data-name="Layer 1" xmlns="http://www.w3.org/2000/svg" viewBox="0 0 40 44.5"><defs><style>.cls-1{fill:#69a6ee;}</style></defs><title>Sophia logo </title><path class="cls-1" d="M20,.66a5.12,5.12,0,0,1,2.52.61L36.84,9.61A5.58,5.58,0,0,1,39.34,14l0,16.64A5.59,5.59,0,0,1,36.78,35L22.46,43.25a5.08,5.08,0,0,1-2.49.6,5.11,5.11,0,0,1-2.52-.61L3.16,34.89a5.59,5.59,0,0,1-2.5-4.36l0-16.64A5.58,5.58,0,0,1,3.22,9.53L17.53,1.26A5.11,5.11,0,0,1,20,.66m0-.29A5.37,5.37,0,0,0,17.39,1L3.07,9.28A5.91,5.91,0,0,0,.41,13.89l0,16.64A5.9,5.9,0,0,0,3,35.15L17.3,43.49a5.37,5.37,0,0,0,2.67.65,5.33,5.33,0,0,0,2.64-.64l14.32-8.28a5.9,5.9,0,0,0,2.66-4.6l0-16.64A5.9,5.9,0,0,0,37,9.36L22.7,1A5.37,5.37,0,0,0,20,.37Z" transform="translate(0 0)"/><path class="cls-1" d="M20,44.5a5.75,5.75,0,0,1-2.86-.7L2.83,35.47A6.31,6.31,0,0,1,0,30.53L0,13.89A6.33,6.33,0,0,1,2.89,9L17.2.69A5.74,5.74,0,0,1,20,0a5.75,5.75,0,0,1,2.86.7L37.17,9A6.23,6.23,0,0,1,40,14l0,16.64a6.3,6.3,0,0,1-2.85,4.92L22.79,43.82A5.7,5.7,0,0,1,20,44.5ZM20,1a4.77,4.77,0,0,0-2.31.55L3.4,9.86a5.24,5.24,0,0,0-2.33,4L1,30.53a5.24,5.24,0,0,0,2.32,4l14.28,8.34a4.77,4.77,0,0,0,2.34.56,4.68,4.68,0,0,0,2.31-.55L36.6,34.65a5.25,5.25,0,0,0,2.33-4L39,14a5.24,5.24,0,0,0-2.31-4L22.37,1.59A4.71,4.71,0,0,0,20,1Z" transform="translate(0 0)"/><path class="cls-1" d="M20.87,13.06a4.11,4.11,0,0,1-.57-1.45C18.89,13,17.57,15.14,17.74,17a2.64,2.64,0,0,0,.72,1.64,2,2,0,0,0,1.05.51,13.21,13.21,0,0,1,.35-5.38,18.69,18.69,0,0,0,.3,5.4,1.94,1.94,0,0,0,.81-.27,2.51,2.51,0,0,0,1.11-2A6.74,6.74,0,0,0,20.87,13.06Z" transform="translate(0 0)"/><path class="cls-1" d="M28.24,21.73a4.14,4.14,0,0,1,1-1.23c-2-.53-4.48-.63-6.07.46a2.68,2.68,0,0,0-1.09,1.46,2,2,0,0,0,.08,1.18,13.41,13.41,0,0,1,4.92-2.39,18.91,18.91,0,0,0-4.61,3,2,2,0,0,0,.65.58,2.55,2.55,0,0,0,2.31,0A6.86,6.86,0,0,0,28.24,21.73Z" transform="translate(0 0)"/><path class="cls-1" d="M27.47,15.51a3.06,3.06,0,0,1,.35-1.12,5.8,5.8,0,0,0-4.09,2,2,2,0,0,0-.36,1.31,1.48,1.48,0,0,0,.37.8,10,10,0,0,1,2.77-3,14.18,14.18,0,0,0-2.4,3.31,1.54,1.54,0,0,0,.61.23,1.9,1.9,0,0,0,1.6-.64A5.11,5.11,0,0,0,27.47,15.51Z" transform="translate(0 0)"/><path class="cls-1" d="M25.58,10.13A2.84,2.84,0,0,1,25.65,9a5.42,5.42,0,0,0-3.25,2.71,1.89,1.89,0,0,0,0,1.26,1.38,1.38,0,0,0,.52.64,9.29,9.29,0,0,1,1.82-3.34,13.12,13.12,0,0,0-1.41,3.55,1.38,1.38,0,0,0,.6.07,1.78,1.78,0,0,0,1.3-.95A4.77,4.77,0,0,0,25.58,10.13Z" transform="translate(0 0)"/><path class="cls-1" d="M28.19,29.07a2.87,2.87,0,0,1,1.08-.23,5.42,5.42,0,0,0-3.49-2.4,1.86,1.86,0,0,0-1.22.32,1.36,1.36,0,0,0-.48.67,9.37,9.37,0,0,1,3.71.85,13.21,13.21,0,0,0-3.8-.4,1.4,1.4,0,0,0,.1.6,1.77,1.77,0,0,0,1.26,1A4.77,4.77,0,0,0,28.19,29.07Z" transform="translate(0 0)"/><path class="cls-1" d="M31.18,25.74a2.25,2.25,0,0,1,.84-.11,4.19,4.19,0,0,0-2.53-2.09,1.44,1.44,0,0,0-1,.16,1,1,0,0,0-.41.49,7.27,7.27,0,0,1,2.81.91A10.19,10.19,0,0,0,28,24.53,1.07,1.07,0,0,0,28,25a1.37,1.37,0,0,0,.91.86A3.69,3.69,0,0,0,31.18,25.74Z" transform="translate(0 0)"/><path class="cls-1" d="M31.7,13.46a1.69,1.69,0,0,1,.31-.58,3.24,3.24,0,0,0-2.45.68,1.12,1.12,0,0,0-.32.68.84.84,0,0,0,.12.48,5.69,5.69,0,0,1,1.82-1.38,7.82,7.82,0,0,0-1.64,1.59.81.81,0,0,0,.31.19,1.06,1.06,0,0,0,.94-.2A2.88,2.88,0,0,0,31.7,13.46Z" transform="translate(0 0)"/><path class="cls-1" d="M32.81,22.07a1.78,1.78,0,0,1,.62-.21,3.25,3.25,0,0,0-2.24-1.19,1.12,1.12,0,0,0-.71.27.82.82,0,0,0-.24.43,5.56,5.56,0,0,1,2.27.25,7.86,7.86,0,0,0-2.29,0,.87.87,0,0,0,.1.35,1.05,1.05,0,0,0,.82.51A2.86,2.86,0,0,0,32.81,22.07Z" transform="translate(0 0)"/><path class="cls-1" d="M32.07,17.59A2.24,2.24,0,0,1,32.7,17a4.2,4.2,0,0,0-3.27-.26,1.44,1.44,0,0,0-.7.69,1.07,1.07,0,0,0-.06.64,7.27,7.27,0,0,1,2.82-.86,10.23,10.23,0,0,0-2.71,1.2,1.08,1.08,0,0,0,.3.37,1.38,1.38,0,0,0,1.23.18A3.69,3.69,0,0,0,32.07,17.59Z" transform="translate(0 0)"/><path class="cls-1" d="M10.85,21.54a4.13,4.13,0,0,0-1-1.23c2-.53,4.48-.63,6.06.47A2.68,2.68,0,0,1,17,22.23a2,2,0,0,1-.08,1.18A13.4,13.4,0,0,0,12,21a18.9,18.9,0,0,1,4.61,3,2,2,0,0,1-.65.58,2.54,2.54,0,0,1-2.31,0A6.84,6.84,0,0,1,10.85,21.54Z" transform="translate(0 0)"/><path class="cls-1" d="M12.09,15.16a3.25,3.25,0,0,0-.26-1.21c1.56.31,3.37,1.12,4.1,2.44a2.1,2.1,0,0,1,.25,1.4,1.55,1.55,0,0,1-.46.8,10.59,10.59,0,0,0-2.62-3.39,14.88,14.88,0,0,1,2.2,3.7,1.55,1.55,0,0,1-.66.18A2,2,0,0,1,13,18.26,5.37,5.37,0,0,1,12.09,15.16Z" transform="translate(0 0)"/><path class="cls-1" d="M14,10.59a2.88,2.88,0,0,0-.06-1.1,5.42,5.42,0,0,1,3.25,2.72,1.85,1.85,0,0,1,0,1.26,1.37,1.37,0,0,1-.52.64,9.35,9.35,0,0,0-1.82-3.34,13.12,13.12,0,0,1,1.41,3.55,1.41,1.41,0,0,1-.6.07,1.78,1.78,0,0,1-1.3-.95A4.78,4.78,0,0,1,14,10.59Z" transform="translate(0 0)"/><path class="cls-1" d="M11,29a2.89,2.89,0,0,0-1.09-.14,5.42,5.42,0,0,1,3.25-2.71,1.85,1.85,0,0,1,1.25.2,1.35,1.35,0,0,1,.53.63,9.38,9.38,0,0,0-3.61,1.2,13.18,13.18,0,0,1,3.74-.75,1.35,1.35,0,0,1,0,.6,1.77,1.77,0,0,1-1.16,1.11A4.78,4.78,0,0,1,11,29Z" transform="translate(0 0)"/><path class="cls-1" d="M7.34,25.29a2.22,2.22,0,0,0-.83-.19,4.21,4.21,0,0,1,2.74-1.82,1.43,1.43,0,0,1,.94.26,1.06,1.06,0,0,1,.36.53,7.29,7.29,0,0,0-2.89.62,10.26,10.26,0,0,1,3-.27,1.06,1.06,0,0,1-.08.46,1.37,1.37,0,0,1-1,.76A3.71,3.71,0,0,1,7.34,25.29Z" transform="translate(0 0)"/><path class="cls-1" d="M8.11,13.47a1.72,1.72,0,0,0-.25-.61,3.25,3.25,0,0,1,2.38.9,1.12,1.12,0,0,1,.26.71.82.82,0,0,1-.17.46A5.61,5.61,0,0,0,8.64,13.4a7.86,7.86,0,0,1,1.5,1.73.84.84,0,0,1-.33.16A1.06,1.06,0,0,1,8.88,15,2.88,2.88,0,0,1,8.11,13.47Z" transform="translate(0 0)"/><path class="cls-1" d="M5.62,21.42a1.77,1.77,0,0,0-.59-.3,3.24,3.24,0,0,1,2.38-.87,1.12,1.12,0,0,1,.66.37.83.83,0,0,1,.17.46A5.65,5.65,0,0,0,6,21a7.87,7.87,0,0,1,2.26.34.79.79,0,0,1-.14.33,1.06,1.06,0,0,1-.88.39A2.86,2.86,0,0,1,5.62,21.42Z" transform="translate(0 0)"/><path class="cls-1" d="M6.92,17.24a2.29,2.29,0,0,0-.53-.67,4.21,4.21,0,0,1,3.27.26,1.43,1.43,0,0,1,.59.79,1.05,1.05,0,0,1,0,.64A7.29,7.29,0,0,0,7.54,17,10.19,10.19,0,0,1,10,18.57a1.06,1.06,0,0,1-.35.31,1.36,1.36,0,0,1-1.24,0A3.65,3.65,0,0,1,6.92,17.24Z" transform="translate(0 0)"/><path class="cls-1" d="M20.91,6.67a2.55,2.55,0,0,1-.13-1,4.76,4.76,0,0,0-2.36,2.88,1.63,1.63,0,0,0,.19,1.1,1.19,1.19,0,0,0,.55.47,8.32,8.32,0,0,1,1-3.18,11.64,11.64,0,0,0-.64,3.29,1.21,1.21,0,0,0,.53,0,1.56,1.56,0,0,0,1-1A4.19,4.19,0,0,0,20.91,6.67Z" transform="translate(0 0)"/><path class="cls-1" d="M21,23.06a3.27,3.27,0,0,1-1.59,3.86c-1.53,1-2.74,2.19-2.58,4.14.27,3.25,4.68,3.57,5.6,7.41a5.63,5.63,0,0,1-1.48,5.65l3.27-1.61S27,37.63,21,34.22c-4-2.27-4.4-4.68-1-7.11A3,3,0,0,0,21,23.06Z" transform="translate(0 0)"/><path class="cls-1" d="M18.4,23.06A3.27,3.27,0,0,0,20,26.92c1.53,1,2.74,2.19,2.58,4.14-.27,3.25-4.68,3.57-5.6,7.41a5.63,5.63,0,0,0,1.49,5.65L15.18,42.5s-2.84-4.87,3.18-8.28c4-2.27,4.4-4.68,1-7.11A3,3,0,0,1,18.4,23.06Z" transform="translate(0 0)"/><path class="cls-1" d="M22,29.6a.25.25,0,0,1-.24.24H17.5a.25.25,0,0,1-.24-.24h0a.25.25,0,0,1,.24-.24h4.3a.25.25,0,0,1,.24.24Z" transform="translate(0 0)"/><path class="cls-1" d="M22,31.46a.24.24,0,0,1-.24.24H17.5a.25.25,0,0,1-.24-.24h0a.25.25,0,0,1,.24-.24h4.3a.24.24,0,0,1,.24.24Z" transform="translate(0 0)"/><path class="cls-1" d="M22.91,37.68a.32.32,0,0,1-.33.29H16.71a.31.31,0,0,1-.33-.29h0a.31.31,0,0,1,.33-.29h5.86a.32.32,0,0,1,.33.29Z" transform="translate(0 0)"/><path class="cls-1" d="M22.91,40.31a.32.32,0,0,1-.33.29H16.71a.31.31,0,0,1-.33-.29h0a.31.31,0,0,1,.33-.29h5.86a.32.32,0,0,1,.33.29Z" transform="translate(0 0)"/></svg>